<?xml version="1.0" encoding="utf-8"?>
<!-- Generator: Adobe Illustrator 26.2.1, SVG Export Plug-In . SVG Version: 6.00 Build 0)  -->
<svg version="1.1" id="Layer_1" xmlns="http://www.w3.org/2000/svg" xmlns:xlink="http://www.w3.org/1999/xlink" x="0px" y="0px"
	 viewBox="0 0 1863.6 402.4" style="enable-background:new 0 0 1863.6 402.4;" xml:space="preserve">
<style type="text/css">
	.st0{fill:#FFFFFF;}
	.st1{font-family:'Rockwell-Bold';}
	.st2{font-size:245.16px;}
	.st3{fill:url(#SVGID_1_);}
	.st4{fill:url(#SVGID_00000040549067385353338600000014265947093562786473_);}
	.st5{fill:url(#SVGID_00000159445763677515691790000016260973633599829385_);}
	.st6{fill:url(#SVGID_00000151522778327862985320000009356199405781838505_);}
	.st7{fill:url(#SVGID_00000144307046272751839480000000916348189835692937_);}
	.st8{fill:url(#SVGID_00000060729037745995799420000015770971324975582123_);}
	.st9{fill:url(#SVGID_00000172427972155262638640000001089535695825086120_);}
	.st10{fill:url(#SVGID_00000142865859781164115630000010752699532412770727_);}
</style>
<g>
	<text transform="matrix(1 0 0 1 565.4 343.34)" class="st0 st1 st2">   Ranga</text>
</g>
<g>
	<g>
		
			<image style="overflow:visible;opacity:0.75;" width="402" height="401" xlink:href="F2D13161158777EF.png"  transform="matrix(1 0 0 1 115 14.44)">
		</image>
		<g>
			<circle class="st0" cx="315.9" cy="215.3" r="185.1"/>
		</g>
	</g>
	<g>
		<linearGradient id="SVGID_1_" gradientUnits="userSpaceOnUse" x1="385.0532" y1="323.9504" x2="385.0532" y2="323.9504">
			<stop  offset="0" style="stop-color:#EA8F47"/>
			<stop  offset="1" style="stop-color:#E22F67"/>
		</linearGradient>
		<path class="st3" d="M385.1,324"/>
		<g>
			
				<linearGradient id="SVGID_00000122698850146145348330000011431380552143390103_" gradientUnits="userSpaceOnUse" x1="247.2629" y1="303.8583" x2="265.8749" y2="150.3826">
				<stop  offset="0" style="stop-color:#62E9FF"/>
				<stop  offset="0.5" style="stop-color:#0EAFEF"/>
				<stop  offset="1" style="stop-color:#005D6E"/>
			</linearGradient>
			<path style="fill:url(#SVGID_00000122698850146145348330000011431380552143390103_);" d="M240,131.1c11.3,3,18,11,17.8,20
				c-0.2,9-31,163-25.2,166.5c5.2,3.2,42.8,2.3,48-0.2c5.2-2.6,25.5-150.9,25.5-169.7c0.2-5.3-0.5-10.5-2.1-15.5
				c-1.9-6-5.9-9.4-11.8-10.2c-6.6-0.8-46.4-2.9-56.2,1.9c-2.5,1.2-5,2.6-7.5,4.1c-1.2,0.7-0.5,2.5,0.9,2.3
				C232.6,129.9,236.3,130.1,240,131.1z"/>
			
				<linearGradient id="SVGID_00000163041486722655487430000013134959011471582623_" gradientUnits="userSpaceOnUse" x1="267.9302" y1="148.2928" x2="271.1069" y2="185.0894">
				<stop  offset="0" style="stop-color:#000000"/>
				<stop  offset="1" style="stop-color:#000000;stop-opacity:0"/>
			</linearGradient>
			<path style="fill:url(#SVGID_00000163041486722655487430000013134959011471582623_);" d="M240,131.1c11.3,3,18,11,17.8,20
				c-0.1,2.8-7.1,41.7-7.1,41.7l51.8-9.3c0,0,3.5-31,3.5-35.9c0.2-5.3-0.5-10.5-2.1-15.5c-1.9-6-5.9-9.4-11.8-10.2
				c-6.6-0.8-46.4-2.9-56.2,1.9c-2.5,1.2-5,2.6-7.5,4.1c-1.2,0.7-0.5,2.5,0.9,2.3C232.6,129.9,236.3,130.1,240,131.1z"/>
			
				<linearGradient id="SVGID_00000053528822540977307120000007862064729261495730_" gradientUnits="userSpaceOnUse" x1="454.9728" y1="184.8046" x2="297.384" y2="208.749">
				<stop  offset="5.837340e-02" style="stop-color:#CF1CFF"/>
				<stop  offset="1" style="stop-color:#2F309F"/>
			</linearGradient>
			<path style="fill:url(#SVGID_00000053528822540977307120000007862064729261495730_);" d="M404.4,170.7
				c-6.8,2.9-96.6,25.8-96.7,25.7c-14.3,3.7-11.9,37,5.8,35.1c2.6-0.1,107.6-14.6,135.4-27c2.6-1.2,5.4-2.7,5.9-4
				c0.2-0.6,0.4-0.9,0.6-1.3c0.3-0.8,0.6-1.4,0.7-1.6c0.2-0.7,0.4-1.5,0.4-2.3c0-0.8,0-1.6-0.1-2.5l0,0c-0.3-2-0.9-4.3-2-6.9
				c-3.9-8.6-8.6-16.7-14.2-24.4L404.4,170.7z"/>
			
				<linearGradient id="SVGID_00000145742318178908953330000013568253720216214693_" gradientUnits="userSpaceOnUse" x1="288.696" y1="217.3581" x2="316.4921" y2="212.8578">
				<stop  offset="0" style="stop-color:#000000"/>
				<stop  offset="1" style="stop-color:#000000;stop-opacity:0"/>
			</linearGradient>
			<path style="fill:url(#SVGID_00000145742318178908953330000013568253720216214693_);" d="M324,223.6
				c-12.3-12.3-10.8-23.1-8.1-29.3c-5.1,1.3-8.2,2.1-8.3,2.1c-14.3,3.7-11.9,37,5.8,35.1c0.6,0,6.8-0.9,16.4-2.2
				C327.8,227.4,325.9,225.6,324,223.6z"/>
			
				<linearGradient id="SVGID_00000019646303489395406870000007651976022911480238_" gradientUnits="userSpaceOnUse" x1="397.0937" y1="311.7634" x2="247.7897" y2="192.1086">
				<stop  offset="5.837340e-02" style="stop-color:#CF1CFF"/>
				<stop  offset="1" style="stop-color:#2F309F"/>
			</linearGradient>
			<path style="fill:url(#SVGID_00000019646303489395406870000007651976022911480238_);" d="M312.9,231.1
				c29.4,29.4,57.8,52.9,83.7,71.7c2.1,1.4,4.3,3,6.6,4.7c2.3,1.7,4.7,3.4,7.4,5.2c2.6,1.7,3.7,3.4,3.2,5.1
				c-3.5,10.2-22.4,7.8-28.6,6.3c0,0,0,0,0,0l-4-1.2c-21-7.7-99.7-60.7-100.5-61.2c-12.9-8.9-55-38,26.9-65c0.2-0.1,0.3,0.1,0.2,0.3
				C305.6,199.5,295.6,213.8,312.9,231.1z"/>
			<g>
				<g>
					
						<linearGradient id="SVGID_00000111881633072944664970000013346556931514445486_" gradientUnits="userSpaceOnUse" x1="212.9893" y1="150.9816" x2="456.3568" y2="150.9816">
						<stop  offset="0" style="stop-color:#5EFCFC"/>
						<stop  offset="1" style="stop-color:#0265FF"/>
					</linearGradient>
					<path style="fill:url(#SVGID_00000111881633072944664970000013346556931514445486_);" d="M454.2,185.9
						c-3.9-8.6-8.6-37.3-14.2-44.9c-9.1-12.8-21.3-21.6-36.8-26.3c-4.3-1.3-8.5-2.5-12.7-3.5c-17.1-4.2-34.7-6.7-52.6-7.5
						c-36.5-2.4-73.1-0.5-109.8,5.7c-9.4,1.9-14.4,3.7-15,5.5c-0.3,0.8-0.2,1.8,0.1,2.9c2.6,11.7,9.6,43.4,21.3,53.9l2.7,2.3
						c0.7,0.6,1.6,1,2.6,0.9c8.1-0.6,44.1-5.9,45.7-6.1c11-2.3,95.1-6,122.2,0c27.1,6.1,49.8,20.7,47.6,30.4
						c0.3-0.8,0.6-1.4,0.7-1.6C456.8,194.8,456.3,190.9,454.2,185.9z"/>
					
						<linearGradient id="SVGID_00000116234345371559028490000017493821789534713521_" gradientUnits="userSpaceOnUse" x1="211.1596" y1="150.3249" x2="458.2361" y2="150.3249">
						<stop  offset="0" style="stop-color:#5EFCFC"/>
						<stop  offset="1" style="stop-color:#0265FF"/>
					</linearGradient>
					<path style="fill:url(#SVGID_00000116234345371559028490000017493821789534713521_);" d="M454.2,185.9
						c-1.6-3.8-2.6-7.9-3.7-11.9l-3.1-12.1c-1.1-4-2.1-8.1-3.5-12c-0.7-2-1.4-3.9-2.3-5.8c-0.8-1.9-2.1-3.6-3.4-5.2
						c-5.1-6.6-11.4-12.2-18.5-16.5c-3.6-2.1-7.3-4-11.2-5.4c-1.9-0.7-3.9-1.4-5.9-2l-6-1.6l-6-1.6c-2-0.5-4.1-0.9-6.1-1.4
						c-4.1-0.9-8.2-1.6-12.3-2.3c-8.2-1.3-16.5-2.3-24.8-2.9c-2.1-0.1-4.1-0.3-6.2-0.4c-2.1-0.1-4.2-0.2-6.2-0.3
						c-4.2-0.2-8.3-0.4-12.5-0.5c-8.3-0.2-16.6-0.2-24.9,0.1c-16.6,0.5-33.2,1.8-49.7,4c-4.1,0.6-8.2,1.2-12.3,1.8l-6.1,1
						c-2,0.3-4,0.8-6,1.3c-2,0.5-4,1-5.8,1.7c-0.9,0.3-1.8,0.7-2.4,1.2c-0.3,0.2-0.5,0.5-0.4,0.3c-0.1,0.1-0.1,0.5-0.1,0.8
						c0,0.2,0,0.3,0.1,0.5l0.1,0.3l0.1,0.4l0.3,1.6l0.7,3.1c0.5,2,1,4,1.4,6c2,8,4.3,16,7.2,23.7c3.1,7.6,6.5,15.2,12.7,20.2
						l0.6,0.5c0.2,0.2,0.3,0.3,0.4,0.4c0.2,0.2,0.5,0.3,0.7,0.3c0.1,0,0.3,0,0.4,0l0.8-0.1l1.5-0.1c2-0.2,4.1-0.4,6.2-0.7
						c4.1-0.5,8.3-1,12.4-1.6l24.8-3.3l-0.1,0l2.9-0.4l2.9-0.3c1.9-0.2,3.8-0.3,5.7-0.4c3.8-0.2,7.6-0.5,11.4-0.6
						c7.6-0.4,15.2-0.5,22.8-0.7c15.2-0.3,30.4-0.2,45.6,0.4c1.9,0.1,3.8,0.2,5.7,0.3c1.9,0.1,3.8,0.2,5.7,0.4
						c3.8,0.3,7.6,0.6,11.3,1.2l2.8,0.4l2.8,0.5l2.8,0.5l2.8,0.7c3.7,0.9,7.3,2,10.9,3.3c7.2,2.5,14.1,5.7,20.6,9.7
						c3.2,2,6.3,4.3,9,7c1.3,1.4,2.5,2.9,3.4,4.5c0.5,0.8,0.8,1.7,1,2.7c0.2,0.9,0.2,1.9,0,2.8l0,0l0.6-1.6c0.2-0.5,0.3-1.1,0.3-1.7
						c0.1-1.1,0.1-2.3-0.1-3.4C455.8,190.3,455.1,188.1,454.2,185.9z M454.2,185.9c0.9,2.1,1.6,4.3,2,6.6c0.2,1.1,0.2,2.3,0.1,3.4
						c-0.1,0.6-0.2,1.1-0.3,1.7l-0.6,1.6l0,0c0.2-0.9,0.2-1.9,0-2.8c-0.2-0.9-0.5-1.8-1-2.6c-0.9-1.7-2.1-3.1-3.4-4.5
						c-2.7-2.7-5.8-4.9-9-7c-3.2-2-6.6-3.8-10-5.3c-3.4-1.6-7-2.9-10.6-4.2c-3.6-1.2-7.2-2.3-10.9-3.2l-2.8-0.6l-2.8-0.5l-2.8-0.5
						l-2.8-0.3c-3.8-0.5-7.5-0.7-11.3-0.9c-1.9-0.1-3.8-0.2-5.7-0.2c-1.9-0.1-3.8-0.2-5.7-0.2c-15.2-0.3-30.3-0.1-45.5,0.5
						c-7.6,0.3-15.2,0.6-22.7,1.1c-3.8,0.2-7.6,0.5-11.3,0.8c-1.9,0.2-3.8,0.3-5.6,0.5l-2.8,0.3l-2.7,0.4l-0.1,0l0,0
						c-8.2,1.2-16.5,2.5-24.7,3.7c-4.1,0.6-8.3,1.2-12.4,1.7c-2.1,0.3-4.1,0.5-6.2,0.8l-1.6,0.2l-0.8,0.1c-0.4,0-0.8,0-1.2,0
						c-0.8-0.1-1.5-0.4-2.1-0.8c-0.3-0.2-0.6-0.5-0.8-0.6l-0.6-0.5l-1.2-1c-0.4-0.3-0.8-0.7-1.2-1.1l-1.2-1.2l-0.6-0.6
						c-0.2-0.2-0.3-0.4-0.5-0.6c-0.7-0.9-1.4-1.7-2-2.6l-1.7-2.7c-2.1-3.7-3.9-7.6-5.5-11.5c-3.1-7.9-5.4-16-7.5-24.1
						c-0.5-2-1-4.1-1.4-6.1l-0.7-3l-0.3-1.5l-0.1-0.4l-0.1-0.5c-0.1-0.3-0.1-0.7-0.1-1c0-0.7,0-1.4,0.3-2.3c0.5-1.2,1.2-1.6,1.7-2
						c1.1-0.8,2.2-1.2,3.2-1.6c2.1-0.8,4.1-1.3,6.2-1.8c2.1-0.5,4.1-1,6.2-1.3l6.2-1l6.2-0.9l6.2-0.8c16.6-2,33.3-3.2,50.1-3.4
						c8.4-0.1,16.7,0,25.1,0.4c4.2,0.2,8.4,0.4,12.5,0.7c2.1,0.2,4.2,0.3,6.2,0.4c2.1,0.1,4.2,0.3,6.3,0.5
						c8.3,0.7,16.6,1.8,24.9,3.3c4.1,0.8,8.2,1.6,12.3,2.5c2,0.5,4.1,1,6.1,1.5l6,1.7l6,1.7c2,0.6,4,1.3,5.9,2.1
						c3.9,1.5,7.6,3.4,11.2,5.6c7.1,4.4,13.4,10.1,18.4,16.8c1.2,1.7,2.5,3.3,3.3,5.3c0.9,1.9,1.6,3.9,2.2,5.8c1.3,4,2.4,8,3.4,12
						l3.1,12.1C451.6,178,452.6,182.1,454.2,185.9z"/>
				</g>
			</g>
		</g>
	</g>
</g>
</svg>
